<?xml version="1.0" standalone="no"?>
<!DOCTYPE svg PUBLIC "-//W3C//DTD SVG 1.1//EN" "http://www.w3.org/Graphics/SVG/1.1/DTD/svg11.dtd" >
<svg xmlns="http://www.w3.org/2000/svg">
<metadata></metadata>
<defs>
<font id="futurafuturiscregular" horiz-adv-x="1208" >
<font-face units-per-em="2048" ascent="1511" descent="-537" />
<missing-glyph horiz-adv-x="477" />
<glyph horiz-adv-x="2048" />
<glyph horiz-adv-x="2048" />
<glyph unicode="&#xd;" horiz-adv-x="2048" />
<glyph unicode=" "  horiz-adv-x="477" />
<glyph unicode="&#x09;" horiz-adv-x="477" />
<glyph unicode="&#xa0;" horiz-adv-x="477" />
<glyph unicode="!" horiz-adv-x="532" d="M131 106q0 56 40 96t95 40t95 -40t40 -96t-39.5 -95.5t-95.5 -39.5t-95.5 39.5t-39.5 95.5zM162 319v1115h209v-1115h-209z" />
<glyph unicode="&#x22;" horiz-adv-x="778" d="M98 1434h234l-39 -574h-156zM446 1434h234l-39 -574h-156z" />
<glyph unicode="#" horiz-adv-x="1286" d="M41 422l31 188h231l37 242h-231l30 188h232l63 394h209l-63 -394h249l62 394h209l-62 -394h232l-31 -188h-231l-37 -242h231l-31 -188h-231l-68 -422h-208l67 422h-250l-65 -422h-209l65 422h-231zM512 610h250l37 242h-250z" />
<glyph unicode="$" d="M135 395l217 47q4 -94 62 -182q67 -86 186 -86q111 0 173.5 73.5t62.5 168.5q0 51 -18 92t-52 69.5t-63.5 46t-71.5 35.5l-137 60q-62 26 -109 55.5t-91.5 72.5t-68.5 102.5t-24 131.5q0 142 95.5 247t240.5 124v184h159v-182q71 -11 118.5 -31.5t92.5 -60.5 q71 -64 111 -143l-176 -103q-22 52 -66 90q-62 51 -153 51q-88 0 -144.5 -44.5t-56.5 -127.5q0 -114 153 -174l144 -57q338 -134 338 -422q0 -175 -101 -297.5t-260 -152.5v-197h-159v188q-167 17 -281 144q-104 116 -121 278z" />
<glyph unicode="%" horiz-adv-x="1732" d="M68 1110q0 79 32.5 145t84.5 106.5t111.5 62.5t117.5 22q141 0 243.5 -99.5t102.5 -236.5t-102.5 -236.5t-243.5 -99.5q-58 0 -117.5 22t-111.5 62.5t-84.5 106.5t-32.5 145zM236 1110q0 -68 48.5 -126t129.5 -58q79 0 128.5 58t49.5 126q0 67 -49 125.5t-129 58.5 q-81 0 -129.5 -59t-48.5 -125zM406 39l819 1419l102 -63l-819 -1420zM973 324q0 79 32.5 145t84.5 106t111.5 62t117.5 22q141 0 243.5 -99t102.5 -236t-102.5 -236.5t-243.5 -99.5q-58 0 -117.5 22t-111.5 62.5t-84.5 106.5t-32.5 145zM1141 324q0 -68 48.5 -126.5 t129.5 -58.5q79 0 128.5 58.5t49.5 126.5q0 67 -49 125.5t-129 58.5q-81 0 -129.5 -59t-48.5 -125z" />
<glyph unicode="&#x26;" horiz-adv-x="1384" d="M111 383q0 60 14.5 113.5t33 89t50.5 71t53 53t55 42.5q44 32 115 79q-61 63 -102 141t-41 156q0 64 21 122.5t61.5 106.5t107.5 76.5t150 28.5t150 -27t108.5 -72t63.5 -100t22 -114q0 -108 -62 -186q-29 -35 -81 -83.5t-97 -82.5l252 -310l164 185l139 -146l-168 -194 l264 -332h-266l-143 176q-51 -54 -121 -104q-74 -52 -144 -76.5t-169 -24.5q-196 0 -313 116t-117 296zM328 375q0 -50 21.5 -98t74 -84.5t125.5 -36.5q84 0 162 57q70 49 133 119l-283 344q-101 -56 -158 -119q-35 -38 -55 -87.5t-20 -94.5zM489 1153q0 -60 52 -125l65 -78 l80 58q48 34 67 72.5t19 68.5q0 51 -35.5 90t-107.5 39q-38 0 -66 -11.5t-41.5 -26.5t-21.5 -35.5t-9.5 -31.5t-1.5 -20z" />
<glyph unicode="'" horiz-adv-x="430" d="M98 1434h234l-39 -574h-156z" />
<glyph unicode="(" horiz-adv-x="684" d="M164 532q0 125 17 293.5t52 317.5q50 204 134 379l194 -74q-80 -190 -117 -342q-31 -123 -47 -289t-16 -285q0 -117 16 -285.5t47 -289.5q57 -199 117 -340l-194 -76q-85 174 -134 381q-69 295 -69 610z" />
<glyph unicode=")" horiz-adv-x="684" d="M123 -383q60 141 117 340q31 121 47 289.5t16 285.5q0 119 -16 285t-47 289q-37 152 -117 342l194 74q84 -175 134 -379q35 -149 52 -317.5t17 -293.5q0 -315 -69 -610q-49 -207 -134 -381z" />
<glyph unicode="*" horiz-adv-x="1200" d="M227 1169l60 177l233 -91l-14 250h188l-14 -250l233 91l60 -177l-244 -63l160 -197l-152 -106l-137 211l-137 -211l-152 106l160 197z" />
<glyph unicode="+" horiz-adv-x="1069" d="M68 627v192h366v365h201v-365h366v-192h-366v-365h-201v365h-366z" />
<glyph unicode="," horiz-adv-x="532" d="M-8 -274l217 540l192 -69l-266 -533z" />
<glyph unicode="-" horiz-adv-x="679" d="M82 348v217h516v-217h-516z" />
<glyph unicode="." horiz-adv-x="532" d="M131 106q0 56 40 96t95 40t95 -40t40 -96t-39.5 -95.5t-95.5 -39.5t-95.5 39.5t-39.5 95.5z" />
<glyph unicode="/" horiz-adv-x="1150" d="M0 -377l819 1901l172 -78l-819 -1901z" />
<glyph unicode="0" d="M94 715q0 381 187 592q134 155 323 155q190 0 324 -155q186 -210 186 -592q0 -110 -13 -201t-56 -197.5t-117 -189.5q-138 -156 -324 -156q-185 0 -323 156q-187 211 -187 588zM311 719q0 -277 101 -432q78 -119 192 -119q115 0 193 119q100 153 100 432q0 277 -100 428 q-78 119 -193 119q-114 0 -192 -119q-101 -153 -101 -428z" />
<glyph unicode="1" d="M287 1233l119 201h348v-1434h-222v1233h-245z" />
<glyph unicode="2" d="M70 0l499 602q7 9 29 35.5t31.5 38.5t28.5 35.5t30.5 39t26 36t26.5 38.5q70 104 70 203q0 98 -63.5 168t-172.5 70q-102 0 -174.5 -71.5t-76.5 -190.5h-213q9 183 120 313q124 145 342 145q109 0 197 -35.5t143.5 -96t85 -138.5t29.5 -166q0 -150 -102 -301 q-15 -23 -31 -45.5t-40 -52.5t-37.5 -46.5t-48.5 -57.5t-48 -56l-229 -270h540v-197h-962z" />
<glyph unicode="3" d="M98 387h213q8 -94 73.5 -156.5t168.5 -62.5q110 0 178 71.5t68 190.5q0 101 -65 167.5t-181 66.5h-43v188h43q225 0 225 195q0 102 -58 160.5t-157 58.5q-89 0 -146 -51.5t-63 -143.5h-213q11 135 72 225q41 62 105 101t123.5 52t123.5 13q196 0 311 -111.5t115 -289.5 q0 -198 -157 -305q95 -48 138.5 -134.5t43.5 -193.5q0 -58 -12 -116t-45.5 -121t-83.5 -110.5t-134.5 -78.5t-191.5 -31q-92 0 -166.5 23t-122.5 62.5t-78 81t-49 89.5q-29 78 -35 160z" />
<glyph unicode="4" d="M41 205l917 1331v-1135h152v-196h-152v-205h-208v205h-709zM422 401h328v484z" />
<glyph unicode="5" d="M57 244l164 137q15 -35 36.5 -67t57 -67.5t89.5 -57t118 -21.5q148 0 226.5 91.5t78.5 227.5q0 138 -78 226t-212 88q-172 0 -261 -125h-73l225 758h594v-197h-447l-67 -244q46 4 65 4q183 0 310 -108q161 -139 161 -389q0 -99 -31.5 -190.5t-93.5 -168.5t-168.5 -123.5 t-242.5 -46.5q-299 0 -451 273z" />
<glyph unicode="6" d="M123 438q0 96 35 180.5t106 182.5l500 682l158 -119l-342 -461q37 6 71 6q80 0 155 -27t138.5 -80.5t102 -143.5t38.5 -205q0 -207 -129.5 -344.5t-347.5 -137.5q-207 0 -346 129t-139 338zM340 440q0 -119 73.5 -195.5t190.5 -76.5t190.5 76.5t73.5 195.5 q0 121 -73.5 197t-192.5 76q-116 0 -189 -76t-73 -197z" />
<glyph unicode="7" d="M102 57l713 1180h-704v197h1060l-897 -1483z" />
<glyph unicode="8" d="M152 408q0 116 49.5 203t142.5 134q-158 112 -158 306q0 186 121 298.5t297 112.5t297 -112.5t121 -298.5q0 -194 -158 -306q93 -48 143 -134.5t50 -202.5q0 -135 -64 -236t-165.5 -151t-223.5 -50t-223.5 50t-165 151t-63.5 236zM369 412q0 -107 65.5 -175.5 t169.5 -68.5t170 68.5t66 175.5q0 111 -71 174t-165 63t-164.5 -62.5t-70.5 -174.5zM387 1049q0 -71 35 -121.5t83 -72t99 -21.5t99 21.5t83 72t35 121.5q0 98 -60.5 157.5t-156.5 59.5t-156.5 -59.5t-60.5 -157.5z" />
<glyph unicode="9" d="M123 983q0 133 56.5 241t168 173t258.5 65q115 0 208 -40t151 -107t89 -149.5t31 -170.5q0 -96 -35 -180t-106 -182l-500 -682l-157 119l342 460q-30 -6 -64 -6q-80 0 -157.5 29.5t-141.5 85t-103.5 145t-39.5 199.5zM340 993q0 -121 73.5 -196.5t194.5 -75.5 q115 0 187.5 75t72.5 197q0 119 -74 196t-190 77t-190 -77t-74 -196z" />
<glyph unicode=":" horiz-adv-x="532" d="M131 106q0 56 40 96t95 40t95 -40t40 -96t-39.5 -95.5t-95.5 -39.5t-95.5 39.5t-39.5 95.5zM131 795q0 55 39.5 95t95.5 40t95.5 -40t39.5 -95q0 -56 -40 -96t-95 -40t-95 40t-40 96z" />
<glyph unicode=";" horiz-adv-x="532" d="M-8 -274l217 540l192 -69l-266 -533zM131 795q0 55 39.5 95t95.5 40t95.5 -40t39.5 -95q0 -56 -40 -96t-95 -40t-95 40t-40 96z" />
<glyph unicode="&#x3c;" horiz-adv-x="1069" d="M68 627v176l933 454v-208l-708 -334l708 -334v-209z" />
<glyph unicode="=" horiz-adv-x="1069" d="M68 471v180h933v-180h-933zM68 819v180h933v-180h-933z" />
<glyph unicode="&#x3e;" horiz-adv-x="1069" d="M68 172v209l708 334l-708 334v208l933 -454v-176z" />
<glyph unicode="?" horiz-adv-x="921" d="M111 1124q0 65 21.5 124.5t63 108t110 77t155.5 28.5q155 0 252.5 -96.5t97.5 -265.5q0 -95 -34.5 -150t-92.5 -96q-44 -31 -83.5 -49.5t-131.5 -52.5q-26 -10 -40.5 -16.5t-36 -21t-32 -36.5t-10.5 -51q0 -45 30.5 -77t76.5 -32q64 0 92 51q21 41 18 95h213 q-3 -66 -15.5 -110.5t-41.5 -86.5q-91 -137 -268 -137q-129 0 -223.5 83t-94.5 226q0 58 17.5 105t40.5 76t62.5 55t66 38t67.5 27q13 5 48 17.5t47 17.5t31.5 15t31.5 20q49 40 49 114q0 70 -36 110t-101 40q-63 0 -100 -38t-37 -116q0 -13 2 -39.5t2 -29.5h-213 q-4 51 -4 73zM326 106q0 56 40 96t95 40t95 -40t40 -96t-40 -95.5t-95 -39.5t-95 39.5t-40 95.5z" />
<glyph unicode="@" horiz-adv-x="1564" d="M70 707q0 160 56.5 299t155 237.5t237 154.5t298.5 56q191 0 343.5 -74t243.5 -220t91 -341q0 -232 -102 -366q-45 -59 -112 -97.5t-136 -38.5q-13 0 -29.5 3t-46.5 14t-53.5 41.5t-32.5 75.5q-47 -66 -116 -106t-152 -40q-127 0 -215 90.5t-88 253.5q0 102 34 186.5 t89 136.5t120.5 80.5t132.5 28.5q22 0 47.5 -4.5t61 -16.5t67 -42t48.5 -74l22 111h148l-84 -432q-13 -72 -13 -97q0 -46 21 -66t47 -20q32 0 70.5 27.5t60.5 58.5q30 42 51 129t21 162q0 92 -32.5 180t-95 163t-168 121t-237.5 46q-171 0 -312 -82t-221.5 -224.5 t-80.5 -315.5q0 -186 98.5 -342.5t267.5 -219.5q119 -43 261 -43q218 0 421 88l37 -131q-202 -84 -463 -84q-316 0 -520 174q-44 38 -82 85t-76 115.5t-60.5 161.5t-22.5 198zM580 651q0 -92 45 -143t112 -51q94 0 163 81.5t69 206.5q0 15 -1.5 31.5t-11 46.5t-25 51.5 t-48 38.5t-76.5 17q-93 0 -160 -75t-67 -204z" />
<glyph unicode="A" horiz-adv-x="1409" d="M8 0l713 1516l680 -1516h-238l-151 348h-609l-157 -348h-238zM492 553h434l-213 483z" />
<glyph unicode="B" horiz-adv-x="1118" d="M164 0v1434h217q67 0 92 -1t80.5 -7t98 -23t83.5 -45q162 -111 162 -324q0 -164 -127 -262q85 -26 143.5 -84.5t82.5 -124.5t24 -137q0 -81 -32.5 -171.5t-110.5 -154.5q-36 -29 -80 -49.5t-78 -30t-83.5 -14.5t-72.5 -5.5t-69 -0.5h-330zM385 205h131q68 0 120 14 t82 35.5t49 51.5t25.5 57.5t6.5 58.5q0 40 -12.5 75.5t-42 68.5t-87 52t-137.5 19h-135v-432zM385 817h66q17 0 29 0.5t38 4.5t45.5 11.5t43.5 23t39.5 37t26.5 56.5t11 78q0 47 -12.5 83t-35.5 57t-45.5 34.5t-52 18.5t-45.5 6.5t-34 1.5h-74v-412z" />
<glyph unicode="C" horiz-adv-x="1323" d="M98 711q0 153 54.5 299.5t175.5 261.5q108 103 235 146.5t283 43.5q225 0 383 -106v-258q-164 159 -387 159q-231 0 -372.5 -153.5t-141.5 -392.5q0 -151 64.5 -273t182.5 -192t267 -70q212 0 387 166v-262q-169 -109 -393 -109q-298 0 -508 199q-230 220 -230 541z" />
<glyph unicode="D" horiz-adv-x="1372" d="M164 0v1434h301q175 0 297 -28t235 -112q84 -62 142 -141t85.5 -159.5t38.5 -146.5t11 -132q0 -179 -74.5 -329t-214.5 -249q-116 -82 -236 -109.5t-288 -27.5h-297zM385 205h92q72 0 123.5 4.5t125.5 28.5t132 69q89 67 137.5 174t48.5 234q0 125 -48 236t-136 177 q-58 44 -133 67.5t-127.5 28.5t-122.5 5h-92v-1024z" />
<glyph unicode="E" horiz-adv-x="1060" d="M164 0v1434h790v-205h-569v-344h553v-205h-553v-475h569v-205h-790z" />
<glyph unicode="F" horiz-adv-x="954" d="M164 0v1434h717v-205h-496v-344h479v-205h-479v-680h-221z" />
<glyph unicode="G" horiz-adv-x="1597" d="M98 715q0 147 51 284t154 244q209 219 541 219q242 0 436 -137q97 -69 158 -156l-156 -147q-18 26 -38 50.5t-60.5 60t-86 61t-112.5 44.5t-141 19q-226 0 -371 -153.5t-145 -388.5q0 -155 69 -279t185.5 -192t255.5 -68q167 0 284 102.5t144 262.5h-357v204h590v-45 q0 -127 -26 -238t-103 -220q-26 -37 -56 -69.5t-80 -71t-105.5 -66t-133.5 -46t-164 -18.5q-307 0 -516 209q-217 217 -217 535z" />
<glyph unicode="H" horiz-adv-x="1380" d="M164 0v1434h221v-562h610v562h222v-1434h-222v668h-610v-668h-221z" />
<glyph unicode="I" horiz-adv-x="548" d="M164 0v1434h221v-1434h-221z" />
<glyph unicode="J" horiz-adv-x="770" d="M-37 45l107 184q64 -53 149 -53q45 0 79 20.5t46.5 38.5t20.5 37q20 46 20 232v930h221v-928q0 -108 -10 -184t-43 -144q-50 -102 -138.5 -154.5t-197.5 -52.5q-139 0 -254 74z" />
<glyph unicode="K" horiz-adv-x="1249" d="M164 0v1434h221v-572l553 572h287l-647 -650l651 -784h-291l-553 688v-688h-221z" />
<glyph unicode="L" horiz-adv-x="835" d="M164 0v1434h221v-1229h418v-205h-639z" />
<glyph unicode="M" horiz-adv-x="1818" d="M123 0l301 1540l498 -1110l503 1110l271 -1540h-226l-143 864l-418 -930l-411 932l-150 -866h-225z" />
<glyph unicode="N" horiz-adv-x="1585" d="M164 0v1528l1036 -1086v992h221v-1520l-1036 1085v-999h-221z" />
<glyph unicode="O" horiz-adv-x="1687" d="M98 715q0 156 57 294.5t155 238t237 157t297 57.5t296.5 -57.5t237 -157t155 -238t56.5 -294.5q0 -155 -56.5 -292.5t-154.5 -236.5t-237 -157t-297 -58q-211 0 -382.5 98.5t-267.5 268.5t-96 377zM328 715q0 -237 144.5 -388t371.5 -151t371.5 151t144.5 388 q0 238 -144.5 390t-371.5 152t-371.5 -152t-144.5 -390z" />
<glyph unicode="P" horiz-adv-x="1019" d="M164 0v1434h315q91 0 166 -15t148 -63q97 -64 137.5 -158t40.5 -190q0 -195 -140 -314q-132 -112 -350 -112h-96v-582h-221zM385 786h96q35 0 65.5 3.5t70 17.5t67 37t47 66t19.5 100q0 50 -14 88.5t-40 61.5t-52.5 38t-61 21t-56.5 8t-47 2h-94v-443z" />
<glyph unicode="Q" horiz-adv-x="1691" d="M98 715q0 156 57 294.5t155.5 238t237.5 157t298 57.5q158 0 296.5 -57.5t237 -157t155 -238t56.5 -294.5q0 -300 -198 -512l233 -232h-274l-105 109q-85 -56 -176 -82.5t-215 -26.5q-153 0 -281 45t-214.5 119.5t-147 172t-88 200.5t-27.5 207zM328 715q0 -237 145 -388 t373 -151q136 0 241 60l-335 331h274l215 -217q121 147 121 365q0 238 -145 390t-371 152q-227 0 -372.5 -152t-145.5 -390z" />
<glyph unicode="R" horiz-adv-x="1138" d="M164 0v1434h256q76 0 127 -3.5t124 -23.5t128 -57q92 -62 131 -155.5t39 -182.5q0 -151 -88.5 -259t-231.5 -141l449 -612h-267l-409 588h-37v-588h-221zM385 776h68q23 0 43.5 1.5t58.5 8t68.5 22t60.5 39.5t47 66.5t17 96.5q0 59 -21 101.5t-50 64.5t-72.5 34.5 t-75 15.5t-70.5 3h-74v-453z" />
<glyph unicode="S" horiz-adv-x="1103" d="M82 395l217 47q3 -108 61 -182q36 -48 80 -66t105 -18q117 0 178 70t61 170q0 41 -13.5 76.5t-32.5 59.5t-49 46t-54 34.5t-57 26.5l-138 60q-48 21 -86.5 42.5t-78.5 54t-67 69.5t-44 87.5t-17 108.5q0 168 123.5 274.5t296.5 106.5q176 0 287 -98q69 -60 111 -145 l-177 -103q-22 53 -65 90q-59 51 -150 51q-89 0 -146.5 -45.5t-57.5 -124.5q0 -115 153 -176l144 -57q49 -19 90 -40t89.5 -58t82 -80t56 -107t22.5 -139q0 -202 -131 -330.5t-334 -128.5q-210 0 -338 146q-104 116 -121 278z" />
<glyph unicode="T" horiz-adv-x="917" d="M20 1229v205h877v-205h-328v-1229h-221v1229h-328z" />
<glyph unicode="U" horiz-adv-x="1388" d="M164 512v922h221v-865q0 -167 43 -247q35 -64 103.5 -105t162.5 -41q87 0 158 37t109 109q27 52 35 109.5t8 137.5v865h221v-922q0 -225 -133 -373q-152 -168 -398 -168q-245 0 -397 168q-133 148 -133 373z" />
<glyph unicode="V" horiz-adv-x="1290" d="M8 1434h238l399 -1000l399 1000h238l-637 -1524z" />
<glyph unicode="W" horiz-adv-x="2019" d="M8 1434h238l377 -959l387 1028l374 -1028l390 959h237l-641 -1524l-373 1014l-379 -1014z" />
<glyph unicode="X" horiz-adv-x="1171" d="M20 0l451 748l-395 686h246l278 -486l287 486h246l-414 -686l432 -748h-246l-313 549l-326 -549h-246z" />
<glyph unicode="Y" horiz-adv-x="1159" d="M0 1434h246l334 -578l333 578h246l-469 -816v-618h-221v618z" />
<glyph unicode="Z" horiz-adv-x="1183" d="M61 0l705 1229h-590v205h946l-704 -1229h688v-205h-1045z" />
<glyph unicode="[" horiz-adv-x="667" d="M180 -430v1935h393v-188h-184v-1559h184v-188h-393z" />
<glyph unicode="\" horiz-adv-x="1150" d="M160 1446l172 78l819 -1901l-172 -78z" />
<glyph unicode="]" horiz-adv-x="667" d="M94 -242h185v1559h-185v188h393v-1935h-393v188z" />
<glyph unicode="^" horiz-adv-x="1073" d="M33 758l368 676h271l368 -676h-225l-278 516l-279 -516h-225z" />
<glyph unicode="_" horiz-adv-x="860" d="M0 -119h860v-188h-860v188z" />
<glyph unicode="`" horiz-adv-x="1048" d="M176 1352l193 98l258 -336l-115 -74z" />
<glyph unicode="a" horiz-adv-x="1130" d="M82 453q0 93 29.5 178t83.5 152t139 107t188 40q177 0 273 -131v106h209v-905h-209v94q-106 -123 -275 -123q-100 0 -184 41t-139 108.5t-85 154t-30 178.5zM299 449q0 -121 68.5 -205t185.5 -84t185.5 81.5t68.5 209.5q0 139 -74 214.5t-180 75.5q-113 0 -183.5 -84 t-70.5 -208z" />
<glyph unicode="b" horiz-adv-x="1130" d="M127 0v1505h209v-706q96 131 272 131q103 0 188.5 -40t139.5 -107t83.5 -152t29.5 -178q0 -109 -37 -201.5t-98.5 -153t-140.5 -94t-165 -33.5q-165 0 -272 123v-94h-209zM324 446q0 -124 68.5 -205t187.5 -81q116 0 183.5 83.5t67.5 205.5q0 125 -69.5 208.5 t-181.5 83.5q-106 0 -181 -76.5t-75 -218.5z" />
<glyph unicode="c" horiz-adv-x="897" d="M82 446q0 222 147 361q131 123 340 123q155 0 262 -66v-274q-43 70 -113.5 110.5t-148.5 40.5q-108 0 -189 -77.5t-81 -212.5q0 -123 72.5 -207t195.5 -84q161 0 264 153v-274q-118 -68 -249 -68q-234 0 -371 140q-129 129 -129 335z" />
<glyph unicode="d" horiz-adv-x="1130" d="M82 455q0 91 29.5 175.5t83 151.5t139 107.5t188.5 40.5q177 0 273 -131v706h209v-1505h-209v94q-105 -123 -281 -123q-128 0 -228.5 69t-152 178.5t-51.5 236.5zM299 446q0 -121 68 -203.5t184 -82.5q119 0 187.5 81t68.5 205q0 142 -75 218.5t-181 76.5 q-112 0 -182 -84t-70 -211z" />
<glyph unicode="e" horiz-adv-x="1036" d="M82 446q0 219 118.5 351.5t317.5 132.5q116 0 204 -45t140 -121q40 -60 62 -148.5t22 -181.5v-33h-647q3 -116 77 -178.5t167 -62.5q80 0 143 49q57 43 92 125l176 -98q-53 -97 -118 -154q-73 -64 -160 -87.5t-156 -23.5q-81 0 -157 28.5t-140 84.5t-102.5 149.5 t-38.5 212.5zM311 573h420q-19 78 -75.5 123t-133.5 45q-75 0 -133 -46.5t-78 -121.5z" />
<glyph unicode="f" horiz-adv-x="581" d="M41 717v188h115v287q0 53 4.5 91.5t26.5 91.5t63 89q78 68 192 68q65 0 152 -33v-213q-74 41 -135 41q-52 0 -74 -33q-20 -30 -20 -102v-287h229v-188h-229v-717h-209v717h-115z" />
<glyph unicode="g" horiz-adv-x="1130" d="M82 453q0 92 29 177t83 152t139.5 107.5t190.5 40.5q169 0 271 -123v98h209v-866q0 -52 -1.5 -79t-8.5 -77t-26 -93t-50 -83q-130 -166 -365 -166q-163 0 -283.5 85t-158.5 249h208q53 -145 236 -145q63 0 109.5 19.5t70.5 47t38.5 65.5t18 65t3.5 55v118 q-106 -129 -275 -129q-100 0 -184 40.5t-139 108t-85 153.5t-30 180zM299 453q0 -125 68.5 -209t183.5 -84q119 0 187.5 81t68.5 205q0 142 -75 218.5t-181 76.5q-113 0 -182.5 -83t-69.5 -205z" />
<glyph unicode="h" horiz-adv-x="1032" d="M127 0v1505h209v-678q96 103 244 103q58 0 107 -13.5t81 -35t50 -39t30 -35.5q26 -39 39.5 -90.5t15.5 -82t2 -79.5v-555h-209v535q0 42 -1 59.5t-10.5 46t-29.5 51.5q-41 49 -120 49q-104 0 -156 -77q-43 -63 -43 -228v-436h-209z" />
<glyph unicode="i" horiz-adv-x="462" d="M96 1278q0 56 40 95.5t95 39.5q56 0 96 -40t40 -95t-40 -95t-96 -40q-55 0 -95 39.5t-40 95.5zM127 0v905h209v-905h-209z" />
<glyph unicode="j" horiz-adv-x="462" d="M96 1278q0 56 40 95.5t95 39.5q56 0 96 -40t40 -95t-40 -95t-96 -40q-55 0 -95 39.5t-40 95.5zM127 -430v1335h209v-1335h-209z" />
<glyph unicode="k" horiz-adv-x="942" d="M127 0v1505h209v-911l299 311h274l-387 -377l416 -528h-266l-336 434v-434h-209z" />
<glyph unicode="l" horiz-adv-x="462" d="M127 0v1505h209v-1505h-209z" />
<glyph unicode="m" horiz-adv-x="1495" d="M127 0v905h209v-84q85 109 225 109q23 0 46.5 -4t59.5 -15.5t70 -41.5t58 -74q88 135 268 135q175 0 258 -144q47 -76 47 -227v-559h-209v498q0 107 -18 161q-32 82 -121 82q-86 0 -127 -69q-41 -62 -41 -205v-467h-209v498q0 108 -20 161q-32 82 -121 82q-80 0 -127 -69 q-39 -59 -39 -205v-467h-209z" />
<glyph unicode="n" horiz-adv-x="1032" d="M127 0v905h209v-84q95 109 248 109q93 0 161 -34.5t105 -88.5q55 -82 55 -252v-555h-209v504v35.5t-2 37t-6 41t-11.5 36.5t-20 35.5t-29.5 26t-42.5 19.5t-56.5 6q-52 0 -89 -19.5t-56.5 -47t-30.5 -72.5t-13.5 -81t-2.5 -87v-434h-209z" />
<glyph unicode="o" horiz-adv-x="1130" d="M82 451q0 208 138 343.5t345 135.5t345.5 -135.5t138.5 -343.5q0 -206 -139 -343t-345 -137t-344.5 137t-138.5 343zM299 449q0 -74 23 -131.5t62 -91t85 -50t96 -16.5t96 16.5t85 50t62 91t23 131.5q0 76 -23.5 134t-62.5 91.5t-84.5 50t-95.5 16.5t-95.5 -16.5 t-84.5 -50t-62.5 -91.5t-23.5 -134z" />
<glyph unicode="p" horiz-adv-x="1130" d="M127 -430v1335h209v-98q104 123 274 123q88 0 168 -34t140 -94t95.5 -150.5t35.5 -196.5q0 -108 -38.5 -200.5t-100.5 -153.5t-140 -95.5t-158 -34.5q-23 0 -51.5 5t-68.5 17.5t-81.5 41t-74.5 69.5v-534h-209zM324 449q0 -122 67.5 -205.5t188.5 -83.5q115 0 183 83.5 t68 209.5q0 134 -74.5 211t-176.5 77q-105 0 -180.5 -77.5t-75.5 -214.5z" />
<glyph unicode="q" horiz-adv-x="1130" d="M82 453q0 92 29.5 177t83.5 152t139 107.5t188 40.5q174 0 273 -123v98h209v-1335h-209v530q-103 -129 -279 -129q-100 0 -183 40.5t-137 108t-84 153.5t-30 180zM299 451q0 -126 68 -208.5t184 -82.5q108 0 182 74t74 212q0 142 -75 218.5t-181 76.5 q-113 0 -182.5 -82.5t-69.5 -207.5z" />
<glyph unicode="r" horiz-adv-x="708" d="M127 0v905h209v-82q87 107 215 107q94 0 170 -53l-94 -191q-51 43 -119 43q-91 0 -135 -72q-37 -58 -37 -186v-471h-209z" />
<glyph unicode="s" horiz-adv-x="765" d="M70 197l176 79q6 -18 15 -35t26 -37t45 -32t63 -12q49 0 75 26.5t26 71.5q0 38 -21 63.5t-74 51.5q-16 8 -83 38.5t-97 49.5q-55 36 -80.5 80.5t-25.5 117.5q0 114 73.5 192.5t208.5 78.5q182 0 258 -178l-174 -93q-11 35 -37.5 58.5t-62.5 23.5q-4 0 -9 -0.5t-17 -3.5 t-21 -8.5t-16 -17.5t-7 -29q0 -35 26 -56t95 -53q117 -50 172 -92q109 -81 109 -202q0 -60 -20 -111.5t-53 -87t-76 -60.5t-89 -37t-92 -12q-101 0 -187.5 58t-125.5 168z" />
<glyph unicode="t" horiz-adv-x="516" d="M49 717v188h90v324h209v-324h160v-188h-160v-717h-209v717h-90z" />
<glyph unicode="u" horiz-adv-x="1028" d="M127 381v524h209v-520q0 -37 1.5 -58t10.5 -52t27 -54q48 -61 139 -61t139 61q18 23 27 54t10.5 52t1.5 58v520h209v-524q0 -98 -17.5 -166.5t-78.5 -130.5q-62 -64 -144 -88.5t-151 -24.5q-63 0 -143.5 24.5t-143.5 88.5q-61 62 -78.5 130.5t-17.5 166.5z" />
<glyph unicode="v" horiz-adv-x="962" d="M12 905h238l231 -516l232 516h237l-469 -966z" />
<glyph unicode="w" horiz-adv-x="1474" d="M12 905h238l233 -516l254 594l254 -594l234 516h237l-471 -966l-254 577l-254 -577z" />
<glyph unicode="x" horiz-adv-x="1064" d="M12 0l400 489l-322 416h250l199 -264l202 264h258l-333 -416l387 -489h-254l-260 338l-269 -338h-258z" />
<glyph unicode="y" horiz-adv-x="1036" d="M12 905h254l266 -510l254 510h238l-686 -1335h-238l316 598z" />
<glyph unicode="z" horiz-adv-x="1028" d="M16 0l586 711h-463v194h873l-582 -712h537v-193h-951z" />
<glyph unicode="{" horiz-adv-x="1048" d="M274 446v172q121 26 121 179v368q0 84 19 145t75 101q69 51 222 51h100v-180h-16q-119 0 -154 -35q-37 -37 -37 -137v-317q0 -108 -24 -160q-14 -30 -41 -55t-43.5 -34t-24.5 -12q8 -3 24.5 -12t43.5 -33.5t41 -54.5q24 -52 24 -160v-317q0 -100 37 -137q35 -35 154 -35 h16v-180h-100q-153 0 -222 51q-56 40 -75 101t-19 145v368q0 152 -121 178z" />
<glyph unicode="|" horiz-adv-x="1032" d="M414 -537v2149h204v-2149h-204z" />
<glyph unicode="}" horiz-adv-x="1048" d="M274 -217h17q118 0 153 35q37 37 37 137v317q0 106 25 160q14 30 41 54.5t43 33.5t24 12q-7 2 -24 11.5t-43.5 34.5t-40.5 55q-25 54 -25 160v317q0 100 -37 137q-35 35 -153 35h-17v180h101q152 0 221 -51q56 -40 75 -101t19 -145v-368q0 -153 121 -179v-172 q-121 -26 -121 -178v-368q0 -84 -19 -145t-75 -101q-69 -51 -221 -51h-101v180z" />
<glyph unicode="~" horiz-adv-x="1417" d="M188 623q51 115 109 178q83 90 197 90q89 0 235 -66q43 -20 66 -29.5t62 -19.5t73 -10q63 0 106 37q39 31 70 92l123 -70q-52 -129 -142 -200q-77 -60 -178 -60q-18 0 -35.5 2t-37.5 6.5t-33 8t-36 12t-32 12t-35.5 14.5t-31.5 13q-141 57 -187 57q-63 0 -110 -47 q-40 -40 -62 -98z" />
<glyph unicode="&#xa9;" horiz-adv-x="1622" d="M68 715q0 210 96 381t266 268.5t381 97.5t381 -97.5t266 -268.5t96 -381q0 -209 -96 -379.5t-266 -267.5t-381 -97t-381 97t-266 267.5t-96 379.5zM190 715q0 -178 78.5 -322t221 -227.5t321.5 -83.5t321.5 83.5t221 227.5t78.5 322q0 179 -78.5 324t-221 229t-321.5 84 t-321.5 -84t-221 -229t-78.5 -324zM381 713q0 197 133 323.5t338 126.5q130 0 246 -67v-187q-116 107 -254 107q-129 0 -214 -85.5t-85 -217.5q0 -131 84 -213t217 -82q134 0 252 108v-188q-122 -68 -254 -68q-198 0 -330.5 126.5t-132.5 316.5z" />
<glyph unicode="&#xab;" horiz-adv-x="1085" d="M82 467l352 463l139 -99l-278 -364l278 -365l-139 -98zM483 467l353 463l139 -99l-279 -364l279 -365l-139 -98z" />
<glyph unicode="&#xad;" horiz-adv-x="679" d="M82 348v217h516v-217h-516z" />
<glyph unicode="&#xae;" horiz-adv-x="1622" d="M68 715q0 210 96 381t266 268.5t381 97.5t381 -97.5t266 -268.5t96 -381q0 -209 -96 -379.5t-266 -267.5t-381 -97t-381 97t-266 267.5t-96 379.5zM190 715q0 -178 78.5 -322t221 -227.5t321.5 -83.5t321.5 83.5t221 227.5t78.5 322q0 179 -78.5 324t-221 229t-321.5 84 t-321.5 -84t-221 -229t-78.5 -324zM526 289v860h222q30 0 56 -2.5t64.5 -10.5t69 -26t58.5 -45t43.5 -72.5t15.5 -103.5q0 -96 -51.5 -158t-137.5 -80l287 -362h-184l-254 340h-41v-340h-148zM674 764h55q178 0 178 125q0 36 -13.5 61t-31 37t-45.5 18.5t-43.5 7.5t-40.5 1 h-59v-250z" />
<glyph unicode="&#xbb;" horiz-adv-x="1085" d="M111 102l278 365l-278 364l139 99l352 -463l-352 -463zM512 102l279 365l-279 364l139 99l353 -463l-353 -463z" />
<glyph unicode="&#x401;" horiz-adv-x="1060" d="M164 0v1434h790v-205h-569v-344h553v-205h-553v-475h569v-205h-790zM213 1708q0 56 39.5 95.5t95.5 39.5t95.5 -39.5t39.5 -95.5t-39.5 -95.5t-95.5 -39.5t-95.5 39.5t-39.5 95.5zM639 1708q0 56 39.5 95.5t95.5 39.5t95.5 -39.5t39.5 -95.5t-39.5 -95.5t-95.5 -39.5 t-95.5 39.5t-39.5 95.5z" />
<glyph unicode="&#x402;" horiz-adv-x="1495" d="M20 1229v205h1024v-205h-475v-383q131 16 277 16q47 0 78 -1.5t80.5 -7t95.5 -20.5t88 -38q61 -34 104.5 -82t65 -102t30.5 -103t9 -100q0 -198 -119.5 -317.5t-306.5 -119.5q-135 0 -275 62l52 205q47 -26 109 -44t116 -18q90 0 146.5 61t56.5 164q0 158 -127 220 q-35 16 -74.5 24.5t-66.5 10t-72 1.5q-129 0 -267 -16v-641h-221v1229h-328z" />
<glyph unicode="&#x403;" horiz-adv-x="909" d="M164 0v1434h717v-205h-496v-1229h-221zM381 1642l299 304l184 -127l-381 -258z" />
<glyph unicode="&#x404;" horiz-adv-x="1323" d="M98 715q0 166 59.5 310t170.5 249q203 188 518 188q225 0 383 -106v-258q-167 159 -389 159q-248 0 -379 -151q-45 -52 -78 -123.5t-45 -144.5h698v-205h-704q10 -170 129 -299q146 -158 381 -158q219 0 387 162v-258q-169 -109 -393 -109q-298 0 -508 199 q-230 219 -230 545z" />
<glyph unicode="&#x405;" horiz-adv-x="1103" d="M82 395l217 47q3 -108 61 -182q36 -48 80 -66t105 -18q117 0 178 70t61 170q0 41 -13.5 76.5t-32.5 59.5t-49 46t-54 34.5t-57 26.5l-138 60q-48 21 -86.5 42.5t-78.5 54t-67 69.5t-44 87.5t-17 108.5q0 168 123.5 274.5t296.5 106.5q176 0 287 -98q69 -60 111 -145 l-177 -103q-22 53 -65 90q-59 51 -150 51q-89 0 -146.5 -45.5t-57.5 -124.5q0 -115 153 -176l144 -57q49 -19 90 -40t89.5 -58t82 -80t56 -107t22.5 -139q0 -202 -131 -330.5t-334 -128.5q-210 0 -338 146q-104 116 -121 278z" />
<glyph unicode="&#x406;" horiz-adv-x="548" d="M164 0v1434h221v-1434h-221z" />
<glyph unicode="&#x407;" horiz-adv-x="548" d="M-6 1708q0 50 35 84.5t84 34.5t83.5 -34.5t34.5 -84.5t-34.5 -84.5t-83.5 -34.5t-84 34.5t-35 84.5zM164 0v1434h221v-1434h-221zM317 1708q0 50 34.5 84.5t84.5 34.5t84.5 -34.5t34.5 -84.5t-34.5 -84.5t-84.5 -34.5t-84.5 34.5t-34.5 84.5z" />
<glyph unicode="&#x408;" horiz-adv-x="770" d="M-37 45l107 184q64 -53 149 -53q45 0 79 20.5t46.5 38.5t20.5 37q20 46 20 232v930h221v-928q0 -108 -10 -184t-43 -144q-50 -102 -138.5 -154.5t-197.5 -52.5q-139 0 -254 74z" />
<glyph unicode="&#x409;" horiz-adv-x="1929" d="M29 0v205q48 -12 71 -12q37 0 76.5 13.5t61.5 33.5q25 23 40.5 62t21.5 93t7.5 90.5t1.5 94.5v854h916v-578h159q228 0 361 -115q61 -54 98 -137t37 -176q0 -94 -41.5 -190.5t-136.5 -159.5q-71 -48 -147 -63t-166 -15h-385v1229h-474v-715q0 -74 -4 -125t-17.5 -112.5 t-44.5 -111.5t-79 -91q-102 -86 -252 -86q-57 0 -104 12zM1225 205h151q19 0 33.5 0.5t46 4.5t55.5 12t53.5 24t48.5 38.5t32.5 58.5t13.5 81q0 25 -4 49.5t-21 58.5t-45 58.5t-82 42.5t-127 18h-155v-446z" />
<glyph unicode="&#x40a;" horiz-adv-x="1921" d="M164 0v1434h221v-578h610v578h222v-578h159q228 0 361 -115q61 -54 98 -137t37 -176q0 -94 -41.5 -190.5t-136.5 -159.5q-71 -48 -147.5 -63t-166.5 -15h-385v651h-610v-651h-221zM1217 205h151q19 0 33.5 0.5t46 4.5t55.5 12t53.5 24t48.5 38.5t32.5 58.5t13.5 81 q0 25 -4 49.5t-21 58.5t-45 58.5t-82 42.5t-127 18h-155v-446z" />
<glyph unicode="&#x40b;" horiz-adv-x="1476" d="M20 1229v205h1027v-205h-476v-383q134 14 277 14q114 0 205 -17t159 -71q142 -111 142 -348v-424h-221v391q0 36 -1 55t-7.5 54t-23 62t-44.5 48q-34 27 -89 36t-141 9q-123 0 -256 -14v-641h-221v1229h-330z" />
<glyph unicode="&#x40c;" horiz-adv-x="1249" d="M164 0v1434h221v-572l553 572h287l-647 -650l651 -784h-291l-553 688v-688h-221zM469 1642l299 304l184 -127l-381 -258z" />
<glyph unicode="&#x40e;" horiz-adv-x="1224" d="M12 1434h267l374 -744l330 744h229l-647 -1434h-229l192 428zM276 1788l173 76q17 -57 67 -88t115 -31t115 31t67 88l172 -76q-43 -101 -134 -160t-220 -59t-220.5 59t-134.5 160z" />
<glyph unicode="&#x40f;" horiz-adv-x="1359" d="M164 0v1434h221v-1229h590v1229h221v-1434h-414v-389h-204v389h-414z" />
<glyph unicode="&#x410;" horiz-adv-x="1409" d="M8 0l713 1516l680 -1516h-238l-151 348h-609l-157 -348h-238zM492 553h434l-213 483z" />
<glyph unicode="&#x411;" horiz-adv-x="1118" d="M164 0v1434h719v-205h-498v-373h139q231 0 361 -115q62 -56 98.5 -138t36.5 -177q0 -94 -41.5 -189.5t-136.5 -158.5q-71 -48 -147.5 -63t-166.5 -15h-364zM385 205h131q19 0 33.5 0.5t46 4.5t55.5 12t53.5 24t48.5 38.5t32.5 58.5t13.5 81q0 25 -4 49.5t-21 58.5 t-45 58.5t-82 42.5t-127 18h-135v-446z" />
<glyph unicode="&#x412;" horiz-adv-x="1118" d="M164 0v1434h217q67 0 92 -1t80.5 -7t98 -23t83.5 -45q162 -111 162 -324q0 -164 -127 -262q85 -26 143.5 -84.5t82.5 -124.5t24 -137q0 -81 -32.5 -171.5t-110.5 -154.5q-36 -29 -80 -49.5t-78 -30t-83.5 -14.5t-72.5 -5.5t-69 -0.5h-330zM385 205h131q68 0 120 14 t82 35.5t49 51.5t25.5 57.5t6.5 58.5q0 40 -12.5 75.5t-42 68.5t-87 52t-137.5 19h-135v-432zM385 817h66q17 0 29 0.5t38 4.5t45.5 11.5t43.5 23t39.5 37t26.5 56.5t11 78q0 47 -12.5 83t-35.5 57t-45.5 34.5t-52 18.5t-45.5 6.5t-34 1.5h-74v-412z" />
<glyph unicode="&#x413;" horiz-adv-x="909" d="M164 0v1434h717v-205h-496v-1229h-221z" />
<glyph unicode="&#x414;" horiz-adv-x="1392" d="M29 205q74 1 133 53.5t94 140.5q51 131 51 377v658h897v-1229h160v-529h-205v324h-926v-324h-204v529zM365 205h618v1024h-455v-455q0 -264 -51 -399q-40 -106 -112 -170z" />
<glyph unicode="&#x415;" horiz-adv-x="1060" d="M164 0v1434h790v-205h-569v-344h553v-205h-553v-475h569v-205h-790z" />
<glyph unicode="&#x416;" horiz-adv-x="1818" d="M8 0l604 776l-589 658h266l510 -586v586h221v-586l510 586h266l-590 -658l604 -776h-274l-516 676v-676h-221v676l-516 -676h-275z" />
<glyph unicode="&#x417;" horiz-adv-x="1216" d="M53 317l193 101q26 -64 66.5 -111.5t79.5 -71.5t85.5 -38.5t76 -17.5t58.5 -3q111 0 185 47q100 62 100 187q0 47 -12.5 84.5t-32 62.5t-48.5 43.5t-57.5 29t-64.5 16.5t-63.5 7.5t-59.5 1.5h-129v205h129q116 0 186 57.5t70 157.5q0 79 -49 125q-59 57 -170 57 q-183 0 -291 -145l-145 139q93 110 195.5 160.5t238.5 50.5q193 0 315 -102q119 -101 119 -268q0 -202 -176 -304q131 -36 198.5 -133.5t67.5 -230.5q0 -233 -186 -356q-71 -46 -160 -71.5t-178 -25.5q-375 0 -541 346z" />
<glyph unicode="&#x418;" horiz-adv-x="1515" d="M164 -61v1495h221v-967l967 1028v-1495h-222v967z" />
<glyph unicode="&#x419;" horiz-adv-x="1515" d="M164 -61v1495h221v-967l967 1028v-1495h-222v967zM403 1788l172 76q17 -57 67.5 -88t115.5 -31t115 31t67 88l172 -76q-43 -109 -141 -164t-213 -55t-213.5 55t-141.5 164z" />
<glyph unicode="&#x41a;" horiz-adv-x="1249" d="M164 0v1434h221v-572l553 572h287l-647 -650l651 -784h-291l-553 688v-688h-221z" />
<glyph unicode="&#x41b;" horiz-adv-x="1388" d="M29 0v205q48 -12 71 -12q37 0 76.5 13.5t61.5 33.5q25 23 40.5 62t21.5 93t7.5 90.5t1.5 94.5v854h916v-1434h-221v1229h-474v-715q0 -74 -4 -125t-17.5 -112.5t-44.5 -111.5t-79 -91q-102 -86 -252 -86q-57 0 -104 12z" />
<glyph unicode="&#x41c;" horiz-adv-x="1818" d="M123 0l301 1540l498 -1110l503 1110l271 -1540h-226l-143 864l-418 -930l-411 932l-150 -866h-225z" />
<glyph unicode="&#x41d;" horiz-adv-x="1380" d="M164 0v1434h221v-562h610v562h222v-1434h-222v668h-610v-668h-221z" />
<glyph unicode="&#x41e;" horiz-adv-x="1687" d="M98 715q0 156 57 294.5t155 238t237 157t297 57.5t296.5 -57.5t237 -157t155 -238t56.5 -294.5q0 -155 -56.5 -292.5t-154.5 -236.5t-237 -157t-297 -58q-211 0 -382.5 98.5t-267.5 268.5t-96 377zM328 715q0 -237 144.5 -388t371.5 -151t371.5 151t144.5 388 q0 238 -144.5 390t-371.5 152t-371.5 -152t-144.5 -390z" />
<glyph unicode="&#x41f;" horiz-adv-x="1380" d="M164 0v1434h1053v-1434h-222v1229h-610v-1229h-221z" />
<glyph unicode="&#x420;" horiz-adv-x="1019" d="M164 0v1434h315q91 0 166 -15t148 -63q97 -64 137.5 -158t40.5 -190q0 -195 -140 -314q-132 -112 -350 -112h-96v-582h-221zM385 786h96q35 0 65.5 3.5t70 17.5t67 37t47 66t19.5 100q0 50 -14 88.5t-40 61.5t-52.5 38t-61 21t-56.5 8t-47 2h-94v-443z" />
<glyph unicode="&#x421;" horiz-adv-x="1323" d="M98 711q0 153 54.5 299.5t175.5 261.5q108 103 235 146.5t283 43.5q225 0 383 -106v-258q-164 159 -387 159q-231 0 -372.5 -153.5t-141.5 -392.5q0 -151 64.5 -273t182.5 -192t267 -70q212 0 387 166v-262q-169 -109 -393 -109q-298 0 -508 199q-230 220 -230 541z" />
<glyph unicode="&#x422;" horiz-adv-x="917" d="M20 1229v205h877v-205h-328v-1229h-221v1229h-328z" />
<glyph unicode="&#x423;" horiz-adv-x="1224" d="M12 1434h267l374 -744l330 744h229l-647 -1434h-229l192 428z" />
<glyph unicode="&#x424;" horiz-adv-x="1765" d="M98 762q0 89 19.5 164t50 128.5t76 96.5t89.5 70t99 47t96.5 29.5t89.5 14.5t70.5 6t46.5 1h37v172h221v-172h37q24 0 46.5 -1t70.5 -6t89.5 -14.5t96.5 -29.5t99 -47t89.5 -70t76 -96.5t50 -128.5t19.5 -164q0 -119 -37 -218.5t-112 -176.5t-199.5 -120.5t-288.5 -43.5 h-37v-203h-221v203h-37q-164 0 -288.5 43.5t-199.5 120.5t-112 176.5t-37 218.5zM319 762q0 -158 104 -256t306 -98h43v706h-43q-203 0 -306.5 -98.5t-103.5 -253.5zM993 408h43q202 0 306 98t104 256q0 155 -103.5 253.5t-306.5 98.5h-43v-706z" />
<glyph unicode="&#x425;" horiz-adv-x="1171" d="M20 0l451 748l-395 686h246l278 -486l287 486h246l-414 -686l432 -748h-246l-313 549l-326 -549h-246z" />
<glyph unicode="&#x426;" horiz-adv-x="1409" d="M164 0v1434h221v-1229h590v1229h221v-1229h184v-529h-204v324h-1012z" />
<glyph unicode="&#x427;" horiz-adv-x="1290" d="M123 1010v424h221v-392q0 -35 1 -54t7 -55t23.5 -63.5t44.5 -48.5q34 -27 89 -36t142 -9q138 0 254 17v641h221v-1434h-221v588q-209 -17 -276 -17q-251 0 -365 91q-141 111 -141 348z" />
<glyph unicode="&#x428;" horiz-adv-x="1998" d="M164 0v1434h221v-1229h504v1229h221v-1229h504v1229h221v-1434h-1671z" />
<glyph unicode="&#x429;" horiz-adv-x="2048" d="M164 0v1434h221v-1229h504v1229h221v-1229h504v1229h221v-1229h184v-529h-204v324h-1651z" />
<glyph unicode="&#x42a;" horiz-adv-x="1269" d="M20 1229v205h545v-578h160q227 0 360 -115q62 -54 99 -137t37 -176t-42 -190t-137 -160q-71 -48 -147 -63t-168 -15h-383v1229h-324zM565 205h152q19 0 33.5 0.5t46 4.5t55 12t53 24t48.5 38.5t32.5 58.5t13.5 81q0 25 -4 49.5t-20.5 58.5t-44.5 58.5t-82 42.5t-127 18 h-156v-446z" />
<glyph unicode="&#x42b;" horiz-adv-x="1572" d="M164 0v1434h221v-578h160q227 0 360 -115q61 -54 98 -137t37 -176q0 -94 -41.5 -190.5t-136.5 -159.5q-71 -48 -147 -63t-166 -15h-385zM385 205h152q19 0 33.5 0.5t46 4.5t55 12t53 24t48.5 38.5t32.5 58.5t13.5 81q0 25 -4 49.5t-20.5 58.5t-44.5 58.5t-82 42.5 t-127 18h-156v-446zM1188 0v1434h221v-1434h-221z" />
<glyph unicode="&#x42c;" horiz-adv-x="1089" d="M164 0v1434h221v-578h160q227 0 360 -115q61 -54 98 -137t37 -176q0 -94 -41.5 -190.5t-136.5 -159.5q-71 -48 -147 -63t-166 -15h-385zM385 205h152q19 0 33.5 0.5t46 4.5t55 12t53 24t48.5 38.5t32.5 58.5t13.5 81q0 25 -4 49.5t-20.5 58.5t-44.5 58.5t-82 42.5 t-127 18h-156v-446z" />
<glyph unicode="&#x42d;" horiz-adv-x="1327" d="M98 80v258q182 -162 394 -162q124 0 223 41t164 111q116 126 125 305h-713v205h706q-23 165 -131 282q-132 137 -360 137q-223 0 -408 -159v258q160 106 416 106q307 0 502 -188q213 -206 213 -555q0 -336 -213 -549q-199 -199 -508 -199q-232 0 -410 109z" />
<glyph unicode="&#x42e;" horiz-adv-x="2138" d="M164 0v1434h221v-570h221q34 220 185 383q35 38 78 71t107.5 68t152 55.5t186.5 20.5q207 0 373.5 -98t259 -268.5t92.5 -380.5q0 -208 -92.5 -378t-259 -268t-373.5 -98q-94 0 -179.5 19.5t-143 46.5t-109.5 65t-79 65t-50 56q-67 81 -110 192.5t-46 243.5h-213v-659 h-221zM819 717q0 -155 63 -278.5t176.5 -193t256.5 -69.5q217 0 356 152.5t139 388.5t-139 388t-356 152t-356.5 -152t-139.5 -388z" />
<glyph unicode="&#x42f;" horiz-adv-x="1140" d="M41 0l426 598q-56 6 -116.5 31.5t-104.5 64.5q-123 106 -123 305q0 180 110 299q36 39 80 66t80 40.5t85 20.5t75.5 8t69.5 1h354v-1434h-221v573h-51l-394 -573h-270zM344 999q0 -53 19.5 -98.5t54.5 -73.5q66 -49 217 -49h121v451h-109q-180 0 -244 -66 q-27 -28 -43 -75.5t-16 -88.5z" />
<glyph unicode="&#x430;" horiz-adv-x="1130" d="M82 453q0 93 29.5 178t83.5 152t139 107t188 40q177 0 273 -131v106h209v-905h-209v94q-106 -123 -275 -123q-100 0 -184 41t-139 108.5t-85 154t-30 178.5zM299 449q0 -121 68.5 -205t185.5 -84t185.5 81.5t68.5 209.5q0 139 -74 214.5t-180 75.5q-113 0 -183.5 -84 t-70.5 -208z" />
<glyph unicode="&#x431;" horiz-adv-x="1130" d="M82 557q0 398 135 598q102 152 272 193l152 36q77 19 117 46.5t55 74.5h215q-24 -110 -99 -190t-186 -109l-145 -39q-37 -10 -50.5 -14t-45.5 -16.5t-49.5 -24.5t-41.5 -32.5t-44 -47.5q-70 -95 -74 -231h2q44 64 130 96.5t177 32.5q196 0 318 -131q129 -136 129 -342 q0 -212 -139 -349t-345 -137q-99 0 -185.5 32t-146.5 89q-51 48 -84 110t-46.5 131.5t-17 116t-3.5 107.5zM299 449q0 -74 23 -131.5t62 -91t85 -50t96 -16.5t96 16.5t85 50t62 91t23 131.5q0 76 -23.5 134t-62.5 91.5t-84.5 50t-95.5 16.5t-95.5 -16.5t-84.5 -50 t-62.5 -91.5t-23.5 -134z" />
<glyph unicode="&#x432;" horiz-adv-x="937" d="M127 0v905h354q138 0 207 -53q82 -67 82 -174q0 -126 -106 -176q73 -16 122 -62q70 -63 70 -174q0 -130 -98 -207q-79 -59 -209 -59h-422zM336 172h158q71 0 110 27q43 31 43 80q0 50 -41 77q-33 25 -106 25h-164v-209zM336 553h108q54 0 84 18q41 25 41 74q0 45 -37 70 q-9 7 -18.5 11t-21 5.5t-17 2t-19 0t-16.5 -0.5h-104v-180z" />
<glyph unicode="&#x433;" horiz-adv-x="696" d="M127 0v905h553v-188h-344v-717h-209z" />
<glyph unicode="&#x434;" horiz-adv-x="1044" d="M8 188q112 9 168 119q37 76 37 240v358h680v-717h135v-446h-192v258h-635v-258h-193v446zM307 188h377v529h-270v-250q0 -196 -107 -279z" />
<glyph unicode="&#x435;" horiz-adv-x="1036" d="M82 446q0 219 118.5 351.5t317.5 132.5q116 0 204 -45t140 -121q40 -60 62 -148.5t22 -181.5v-33h-647q3 -116 77 -178.5t167 -62.5q80 0 143 49q57 43 92 125l176 -98q-53 -97 -118 -154q-73 -64 -160 -87.5t-156 -23.5q-81 0 -157 28.5t-140 84.5t-102.5 149.5 t-38.5 212.5zM311 573h420q-19 78 -75.5 123t-133.5 45q-75 0 -133 -46.5t-78 -121.5z" />
<glyph unicode="&#x436;" horiz-adv-x="1339" d="M4 0l385 492l-352 413h254l274 -336v336h209v-336l275 336h254l-353 -413l385 -492h-262l-299 401v-401h-209v401l-299 -401h-262z" />
<glyph unicode="&#x437;" horiz-adv-x="937" d="M82 186l168 86q26 -57 72 -90q52 -39 139 -39q85 0 127 31q51 33 51 102q0 63 -41 89q-34 24 -121 24h-108v172h94q60 0 90 21q37 25 37 75t-39 78q-37 23 -92 23q-69 0 -121 -29q-40 -19 -70 -57l-135 119q55 58 117 90q90 49 219 49q149 0 231 -64q91 -72 91 -180 q0 -62 -32 -111t-91 -73q66 -13 116 -58q72 -63 72 -161q0 -67 -32 -131.5t-95 -108.5q-102 -72 -260 -72q-160 0 -266 76q-71 50 -121 139z" />
<glyph unicode="&#x438;" horiz-adv-x="1085" d="M127 -70v975h209v-514l622 596v-987h-208v526z" />
<glyph unicode="&#x439;" horiz-adv-x="1085" d="M127 -70v975h209v-514l622 596v-987h-208v526zM197 1360l172 49q39 -139 176 -139t176 139l172 -49q-32 -112 -130.5 -183t-217.5 -71t-217.5 71t-130.5 183z" />
<glyph unicode="&#x43a;" horiz-adv-x="942" d="M127 0v905h209v-332l305 332h274l-393 -395l416 -510h-266l-336 418v-418h-209z" />
<glyph unicode="&#x43b;" horiz-adv-x="1003" d="M16 0v188q24 -4 39 -4q69 0 111 45q15 17 22.5 41t8 36.5t0.5 41.5v557h680v-905h-209v717h-271v-365q0 -167 -84 -260q-85 -96 -243 -96q-18 0 -54 4z" />
<glyph unicode="&#x43c;" horiz-adv-x="1245" d="M29 0l219 987l375 -688l374 688l220 -987h-213l-93 455l-288 -525l-289 525l-92 -455h-213z" />
<glyph unicode="&#x43d;" horiz-adv-x="1048" d="M127 0v905h209v-336h377v336h209v-905h-209v381h-377v-381h-209z" />
<glyph unicode="&#x43e;" horiz-adv-x="1130" d="M82 451q0 208 138 343.5t345 135.5t345.5 -135.5t138.5 -343.5q0 -206 -139 -343t-345 -137t-344.5 137t-138.5 343zM299 449q0 -74 23 -131.5t62 -91t85 -50t96 -16.5t96 16.5t85 50t62 91t23 131.5q0 76 -23.5 134t-62.5 91.5t-84.5 50t-95.5 16.5t-95.5 -16.5 t-84.5 -50t-62.5 -91.5t-23.5 -134z" />
<glyph unicode="&#x43f;" horiz-adv-x="1040" d="M127 0v905h786v-905h-208v717h-369v-717h-209z" />
<glyph unicode="&#x440;" horiz-adv-x="1130" d="M127 -430v1335h209v-98q104 123 274 123q88 0 168 -34t140 -94t95.5 -150.5t35.5 -196.5q0 -108 -38.5 -200.5t-100.5 -153.5t-140 -95.5t-158 -34.5q-23 0 -51.5 5t-68.5 17.5t-81.5 41t-74.5 69.5v-534h-209zM324 449q0 -122 67.5 -205.5t188.5 -83.5q115 0 183 83.5 t68 209.5q0 134 -74.5 211t-176.5 77q-105 0 -180.5 -77.5t-75.5 -214.5z" />
<glyph unicode="&#x441;" horiz-adv-x="897" d="M82 446q0 222 147 361q131 123 340 123q155 0 262 -66v-274q-43 70 -113.5 110.5t-148.5 40.5q-108 0 -189 -77.5t-81 -212.5q0 -123 72.5 -207t195.5 -84q161 0 264 153v-274q-118 -68 -249 -68q-234 0 -371 140q-129 129 -129 335z" />
<glyph unicode="&#x442;" horiz-adv-x="774" d="M16 717v188h742v-188h-266v-717h-209v717h-267z" />
<glyph unicode="&#x443;" horiz-adv-x="1036" d="M12 905h254l266 -510l254 510h238l-686 -1335h-238l316 598z" />
<glyph unicode="&#x444;" horiz-adv-x="1429" d="M86 453q0 220 150 348q140 119 374 119v514h209v-514q235 0 375 -119q149 -127 149 -348q0 -224 -151 -351q-141 -119 -373 -116v-416h-209v416q-231 -3 -372 116q-152 128 -152 351zM303 453q0 -147 107 -226q82 -56 200 -53v557q-124 0 -194 -47q-49 -31 -81 -91.5 t-32 -139.5zM819 174q119 -3 201 53q45 33 75.5 90.5t30.5 135.5q0 79 -31.5 139.5t-80.5 91.5q-70 47 -195 47v-557z" />
<glyph unicode="&#x445;" horiz-adv-x="1064" d="M12 0l400 489l-322 416h250l199 -264l202 264h258l-333 -416l387 -489h-254l-260 338l-269 -338h-258z" />
<glyph unicode="&#x446;" horiz-adv-x="1073" d="M127 0v905h209v-717h360v717h209v-717h152v-446h-193v258h-737z" />
<glyph unicode="&#x447;" horiz-adv-x="954" d="M106 614v291h209v-248q0 -93 56 -125q37 -20 104 -20q72 0 143 23v370h209v-905h-209v350q-99 -18 -186 -18q-153 0 -237 65q-53 42 -71 95t-18 122z" />
<glyph unicode="&#x448;" horiz-adv-x="1486" d="M127 0v905h209v-717h303v717h209v-717h303v717h209v-905h-1233z" />
<glyph unicode="&#x449;" horiz-adv-x="1527" d="M127 0v905h209v-717h303v717h209v-717h303v717h209v-717h151v-446h-192v258h-1192z" />
<glyph unicode="&#x44a;" horiz-adv-x="933" d="M16 717v188h402v-321h123q44 0 69.5 -1.5t66 -9.5t74.5 -28t64 -53q70 -75 70 -197q0 -137 -82 -217q-24 -23 -51.5 -38.5t-48 -23.5t-55 -11.5t-51.5 -4t-58 -0.5h-330v717h-193zM418 180h94q74 0 109 21q47 29 47 92q0 60 -45 90q-33 20 -109 20h-96v-223z" />
<glyph unicode="&#x44b;" horiz-adv-x="1232" d="M127 0v905h209v-321h123q42 0 67.5 -2t67.5 -9.5t77 -27.5t64 -53q68 -76 68 -197q0 -142 -82 -219q-29 -27 -60 -43.5t-69.5 -23t-63.5 -8t-71 -1.5h-330zM336 180h94q74 0 109 21q47 29 47 92q0 60 -45 90q-33 20 -109 20h-96v-223zM897 0v905h209v-905h-209z" />
<glyph unicode="&#x44c;" horiz-adv-x="851" d="M127 0v905h209v-321h123q42 0 67.5 -2t67.5 -9.5t77 -27.5t64 -53q68 -76 68 -197q0 -142 -82 -219q-29 -27 -60 -43.5t-69.5 -23t-63.5 -8t-71 -1.5h-330zM336 180h94q74 0 109 21q47 29 47 92q0 60 -45 90q-33 20 -109 20h-96v-223z" />
<glyph unicode="&#x44d;" horiz-adv-x="913" d="M82 25v200q110 -63 254 -63q98 0 174 55.5t92 157.5h-420v188h412q-21 84 -95 131t-165 47q-131 0 -252 -59v201q114 47 246 47q236 0 369.5 -134t133.5 -350q0 -207 -134.5 -341t-344.5 -134q-154 0 -270 54z" />
<glyph unicode="&#x44e;" horiz-adv-x="1495" d="M127 0v905h209v-336h145q25 129 119 226q135 135 338 135q206 0 340.5 -136.5t134.5 -342.5q0 -209 -135 -344.5t-340 -135.5q-217 0 -348 146q-99 113 -111 264h-143v-381h-209zM676 449q0 -75 22 -132t60 -90.5t83 -50t95 -16.5t95 16.5t83 50t60 90.5t22 132 q0 147 -76 219.5t-184 72.5q-110 0 -185 -72.5t-75 -219.5z" />
<glyph unicode="&#x44f;" horiz-adv-x="892" d="M16 0l285 358q-81 10 -143 66q-76 70 -76 190q0 132 82 209q52 49 116 65.5t148 16.5h338v-905h-209v334h-47l-248 -334h-246zM270 614q0 -59 43 -88q33 -20 117 -20h127v219h-129q-77 0 -111 -20q-47 -29 -47 -91z" />
<glyph unicode="&#x451;" horiz-adv-x="1036" d="M82 446q0 219 118.5 351.5t317.5 132.5q116 0 204 -45t140 -121q40 -60 62 -148.5t22 -181.5v-33h-647q3 -116 77 -178.5t167 -62.5q80 0 143 49q57 43 92 125l176 -98q-53 -97 -118 -154q-73 -64 -160 -87.5t-156 -23.5q-81 0 -157 28.5t-140 84.5t-102.5 149.5 t-38.5 212.5zM213 1278q0 56 39.5 95.5t95.5 39.5t95.5 -39.5t39.5 -95.5t-39.5 -95.5t-95.5 -39.5t-95.5 39.5t-39.5 95.5zM311 573h420q-19 78 -75.5 123t-133.5 45q-75 0 -133 -46.5t-78 -121.5zM598 1278q0 56 40 95.5t95 39.5t95 -39.5t40 -95.5t-40 -95.5t-95 -39.5 t-95 39.5t-40 95.5z" />
<glyph unicode="&#x452;" horiz-adv-x="1032" d="M-29 1155v164h156v186h209v-186h430v-164h-430v-328q96 103 244 103q58 0 107 -13.5t81 -35t50 -39t30 -35.5q26 -39 39.5 -90.5t15.5 -82t2 -79.5v-702q0 -181 -94 -252q-77 -60 -199 -60q-64 0 -137 21v180q43 -21 94 -21q73 0 105 48q22 40 22 129v637q0 42 -1 59.5 t-10.5 46t-29.5 51.5q-41 49 -120 49q-104 0 -156 -77q-43 -63 -43 -228v-436h-209v1155h-156z" />
<glyph unicode="&#x453;" horiz-adv-x="696" d="M127 0v905h553v-188h-344v-717h-209zM299 1114l258 336l193 -98l-336 -312z" />
<glyph unicode="&#x454;" horiz-adv-x="913" d="M82 449q0 219 147 358q74 68 158 95.5t188 27.5q148 0 256 -60v-223q-108 94 -247 94q-94 0 -169 -47t-96 -131h412v-192h-418q13 -101 89.5 -156t181.5 -55q144 0 247 98v-221q-100 -66 -258 -66q-225 0 -362 140q-129 129 -129 338z" />
<glyph unicode="&#x455;" horiz-adv-x="765" d="M70 197l176 79q6 -18 15 -35t26 -37t45 -32t63 -12q49 0 75 26.5t26 71.5q0 38 -21 63.5t-74 51.5q-16 8 -83 38.5t-97 49.5q-55 36 -80.5 80.5t-25.5 117.5q0 114 73.5 192.5t208.5 78.5q182 0 258 -178l-174 -93q-11 35 -37.5 58.5t-62.5 23.5q-4 0 -9 -0.5t-17 -3.5 t-21 -8.5t-16 -17.5t-7 -29q0 -35 26 -56t95 -53q117 -50 172 -92q109 -81 109 -202q0 -60 -20 -111.5t-53 -87t-76 -60.5t-89 -37t-92 -12q-101 0 -187.5 58t-125.5 168z" />
<glyph unicode="&#x456;" horiz-adv-x="462" d="M96 1278q0 56 40 95.5t95 39.5q56 0 96 -40t40 -95t-40 -95t-96 -40q-55 0 -95 39.5t-40 95.5zM127 0v905h209v-905h-209z" />
<glyph unicode="&#x457;" horiz-adv-x="516" d="M20 1245q0 44 29.5 73.5t73.5 29.5t73 -29.5t29 -73.5t-29 -73t-73 -29t-73.5 29t-29.5 73zM154 0v905h208v-905h-208zM291 1245q0 44 29 73.5t73 29.5t73.5 -29.5t29.5 -73.5t-29.5 -73t-73.5 -29t-73 29t-29 73z" />
<glyph unicode="&#x458;" horiz-adv-x="462" d="M96 1278q0 56 40 95.5t95 39.5q56 0 96 -40t40 -95t-40 -95t-96 -40q-55 0 -95 39.5t-40 95.5zM127 -430v1335h209v-1335h-209z" />
<glyph unicode="&#x459;" horiz-adv-x="1392" d="M16 0v188q24 -4 39 -4q69 0 111 45q15 17 22.5 41t8 36.5t0.5 41.5v557h680v-321h122q42 0 67.5 -2t67.5 -9.5t77.5 -27.5t64.5 -53q67 -75 67 -197q0 -143 -81 -219q-29 -27 -60.5 -43.5t-70 -23t-63.5 -8t-71 -1.5h-329v717h-271v-365q0 -167 -84 -260 q-85 -96 -243 -96q-18 0 -54 4zM877 180h94q73 0 108 21q47 29 47 92q0 60 -45 90q-33 20 -108 20h-96v-223z" />
<glyph unicode="&#x45a;" horiz-adv-x="1437" d="M127 0v905h209v-321h377v321h209v-321h122q42 0 67.5 -2t67.5 -9.5t77.5 -27.5t64.5 -53q68 -76 68 -197q0 -142 -82 -219q-29 -27 -60.5 -43.5t-70 -23t-63.5 -8t-71 -1.5h-329v403h-377v-403h-209zM922 180h94q73 0 108 21q47 29 47 92q0 60 -45 90q-33 20 -108 20h-96 v-223z" />
<glyph unicode="&#x45b;" horiz-adv-x="1032" d="M-29 1155v164h156v186h209v-186h430v-164h-430v-328q96 103 244 103q58 0 107 -13.5t81 -35t50 -39t30 -35.5q26 -39 39.5 -90.5t15.5 -82t2 -79.5v-555h-209v535q0 42 -1 59.5t-10.5 46t-29.5 51.5q-41 49 -120 49q-104 0 -156 -77q-43 -63 -43 -228v-436h-209v1155 h-156z" />
<glyph unicode="&#x45c;" horiz-adv-x="942" d="M127 0v905h209v-332l305 332h274l-393 -395l416 -510h-266l-336 418v-418h-209zM362 1114l259 336l192 -98l-336 -312z" />
<glyph unicode="&#x45e;" horiz-adv-x="1036" d="M12 905h254l266 -510l254 510h238l-686 -1335h-238l316 598zM176 1360l172 49q39 -139 176 -139t176 139l172 -49q-32 -112 -130.5 -183t-217.5 -71t-217.5 71t-130.5 183z" />
<glyph unicode="&#x45f;" horiz-adv-x="1032" d="M127 0v905h209v-717h360v717h209v-905h-293v-307h-192v307h-293z" />
<glyph unicode="&#x490;" horiz-adv-x="909" d="M164 0v1434h512v323h205v-528h-496v-1229h-221z" />
<glyph unicode="&#x491;" horiz-adv-x="696" d="M127 0v905h360v258h193v-446h-344v-717h-209z" />
<glyph unicode="&#x2000;" horiz-adv-x="973" />
<glyph unicode="&#x2001;" horiz-adv-x="1946" />
<glyph unicode="&#x2002;" horiz-adv-x="973" />
<glyph unicode="&#x2003;" horiz-adv-x="1946" />
<glyph unicode="&#x2004;" horiz-adv-x="648" />
<glyph unicode="&#x2005;" horiz-adv-x="486" />
<glyph unicode="&#x2006;" horiz-adv-x="324" />
<glyph unicode="&#x2007;" horiz-adv-x="324" />
<glyph unicode="&#x2008;" horiz-adv-x="243" />
<glyph unicode="&#x2009;" horiz-adv-x="389" />
<glyph unicode="&#x200a;" horiz-adv-x="108" />
<glyph unicode="&#x2010;" horiz-adv-x="679" d="M82 348v217h516v-217h-516z" />
<glyph unicode="&#x2011;" horiz-adv-x="679" d="M82 348v217h516v-217h-516z" />
<glyph unicode="&#x2012;" horiz-adv-x="679" d="M82 348v217h516v-217h-516z" />
<glyph unicode="&#x2013;" horiz-adv-x="1236" d="M102 360v189h1033v-189h-1033z" />
<glyph unicode="&#x2014;" horiz-adv-x="1708" d="M102 360v189h1504v-189h-1504z" />
<glyph unicode="&#x2018;" horiz-adv-x="614" d="M102 963l267 532l143 -61l-217 -541z" />
<glyph unicode="&#x2019;" horiz-adv-x="716" d="M102 954l217 541l193 -70l-266 -532z" />
<glyph unicode="&#x201a;" horiz-adv-x="716" d="M102 -274l217 540l193 -69l-266 -533z" />
<glyph unicode="&#x201c;" horiz-adv-x="983" d="M102 963l267 532l139 -61l-221 -541zM475 963l266 532l140 -61l-222 -541z" />
<glyph unicode="&#x201d;" horiz-adv-x="1085" d="M102 954l222 541l184 -70l-266 -532zM475 954l221 541l185 -70l-267 -532z" />
<glyph unicode="&#x201e;" horiz-adv-x="1085" d="M102 -274l222 540l184 -69l-266 -533zM475 -274l221 540l185 -69l-267 -533z" />
<glyph unicode="&#x2022;" horiz-adv-x="1392" d="M397 731q0 123 88 211t211 88t211 -88t88 -211t-88 -211t-211 -88t-211 88t-88 211z" />
<glyph unicode="&#x2026;" horiz-adv-x="1597" d="M131 106q0 56 40 96t95 40t95 -40t40 -96t-39.5 -95.5t-95.5 -39.5t-95.5 39.5t-39.5 95.5zM664 106q0 56 40 96t95 40t95 -40t40 -96t-40 -95.5t-95 -39.5t-95 39.5t-40 95.5zM1196 106q0 56 40 96t95 40t95 -40t40 -96t-40 -95.5t-95 -39.5t-95 39.5t-40 95.5z" />
<glyph unicode="&#x202f;" horiz-adv-x="389" />
<glyph unicode="&#x2039;" horiz-adv-x="688" d="M82 467l352 463l144 -103l-279 -360l279 -361l-144 -102z" />
<glyph unicode="&#x203a;" horiz-adv-x="688" d="M111 106l278 361l-278 360l143 103l352 -463l-352 -463z" />
<glyph unicode="&#x205f;" horiz-adv-x="486" />
<glyph unicode="&#x20ac;" d="M47 487l59 166h91q-4 36 -4 72q0 14 1 35t1 28h-148l59 168h105q20 113 61.5 202.5t108 159t165 107t222.5 37.5q113 0 206.5 -27.5t141.5 -62.5v-217q-119 111 -323 111q-158 0 -250.5 -83.5t-116.5 -226.5h610l-59 -168h-576q0 -7 -1 -28t-1 -35q0 -13 1 -38.5t1 -33.5 h525l-60 -166h-440q27 -153 120.5 -235t248.5 -82q201 0 321 109v-220q-42 -33 -133.5 -59.5t-214.5 -26.5q-229 0 -372 127.5t-183 386.5h-166z" />
<glyph unicode="&#x2122;" horiz-adv-x="1523" d="M0 1294v140h512v-140h-180v-680h-152v680h-180zM559 614l176 893l271 -602l274 602l174 -893h-154l-75 447l-219 -459l-220 459l-73 -447h-154z" />
<glyph unicode="&#xe000;" horiz-adv-x="901" d="M0 0v901h901v-901h-901z" />
</font>
</defs>
</svg>
